<?xml version="1.0" standalone="no"?>
<!DOCTYPE svg PUBLIC "-//W3C//DTD SVG 20010904//EN"
 "http://www.w3.org/TR/2001/REC-SVG-20010904/DTD/svg10.dtd">
<svg version="1.0" xmlns="http://www.w3.org/2000/svg"
 width="512.000000pt" height="512.000000pt" viewBox="0 0 512.000000 512.000000"
 preserveAspectRatio="xMidYMid meet">
<metadata>
Created by potrace 1.14, written by Peter Selinger 2001-2017
</metadata>
<g transform="translate(0.000000,512.000000) scale(0.100000,-0.100000)"
fill="#000000" stroke="none">
<path d="M2320 5099 c-311 -30 -611 -116 -899 -260 -509 -253 -897 -641 -1150
-1150 -276 -554 -342 -1167 -191 -1769 86 -344 263 -697 487 -976 231 -286
518 -516 854 -683 230 -115 447 -187 719 -238 139 -26 701 -26 840 0 455 86
850 264 1186 535 599 482 954 1224 954 1992 0 577 -204 1155 -567 1606 -434
538 -1072 879 -1768 944 -125 11 -340 11 -465 -1z m130 -856 c29 -76 325 -869
501 -1343 77 -206 153 -410 170 -452 16 -43 42 -113 58 -155 28 -74 330 -882
404 -1083 20 -52 39 -103 42 -112 7 -17 -7 -18 -201 -18 l-209 0 -22 58 c-12
31 -99 264 -193 517 -94 253 -184 494 -200 535 -16 41 -72 192 -126 335 -53
143 -100 267 -104 275 -7 12 -11 8 -20 -15 -7 -16 -147 -390 -311 -830 -165
-440 -306 -816 -313 -835 l-14 -35 -206 -3 c-128 -1 -206 1 -206 7 0 6 25 77
56 158 31 81 100 265 154 408 54 143 123 325 153 405 30 80 101 266 156 413
56 148 153 406 217 573 63 168 116 313 116 322 1 9 -74 218 -165 463 -92 245
-167 451 -167 458 0 8 57 11 204 11 l205 0 21 -57z"/>
</g>
</svg>
